<?xml version="1.0" encoding="UTF-8" standalone="no"?>
<!-- Created with Inkscape (http://www.inkscape.org/) -->

<svg
   xmlns:dc="http://purl.org/dc/elements/1.1/"
   xmlns:cc="http://creativecommons.org/ns#"
   xmlns:rdf="http://www.w3.org/1999/02/22-rdf-syntax-ns#"
   xmlns:svg="http://www.w3.org/2000/svg"
   xmlns="http://www.w3.org/2000/svg"
   xmlns:sodipodi="http://sodipodi.sourceforge.net/DTD/sodipodi-0.dtd"
   xmlns:inkscape="http://www.inkscape.org/namespaces/inkscape"
   width="246.42999"
   height="68.911247"
   id="svg2"
   version="1.1"
   inkscape:version="0.48.1 "
   sodipodi:docname="New document 1">
  <defs
     id="defs4">
    <clipPath
       id="clipPath3327"
       clipPathUnits="userSpaceOnUse">
      <path
         id="path3329"
         d="m 0,769.64 595.276,0 0,55.242 -595.276,0 0,-55.242 z"
         inkscape:connector-curvature="0" />
    </clipPath>
    <clipPath
       id="clipPath2999"
       clipPathUnits="userSpaceOnUse">
      <path
         id="path3001"
         d="m 0,0 595.276,0 0,841.89 L 0,841.89 0,0 z"
         inkscape:connector-curvature="0" />
    </clipPath>
    <clipPath
       id="clipPath3327-4"
       clipPathUnits="userSpaceOnUse">
      <path
         inkscape:connector-curvature="0"
         id="path3329-0"
         d="m 0,769.64 595.276,0 0,55.242 -595.276,0 0,-55.242 z" />
    </clipPath>
  </defs>
  <sodipodi:namedview
     id="base"
     pagecolor="#ffffff"
     bordercolor="#666666"
     borderopacity="1.0"
     inkscape:pageopacity="0.0"
     inkscape:pageshadow="2"
     inkscape:zoom="2.7833203"
     inkscape:cx="123.215"
     inkscape:cy="34.455625"
     inkscape:document-units="px"
     inkscape:current-layer="g3323"
     showgrid="false"
     fit-margin-top="0"
     fit-margin-left="0"
     fit-margin-right="0"
     fit-margin-bottom="0"
     inkscape:window-width="1024"
     inkscape:window-height="544"
     inkscape:window-x="-4"
     inkscape:window-y="-4"
     inkscape:window-maximized="1" />
  <metadata
     id="metadata7">
    <rdf:RDF>
      <cc:Work
         rdf:about="">
        <dc:format>image/svg+xml</dc:format>
        <dc:type
           rdf:resource="http://purl.org/dc/dcmitype/StillImage" />
        <dc:title></dc:title>
      </cc:Work>
    </rdf:RDF>
  </metadata>
  <g
     inkscape:label="Layer 1"
     inkscape:groupmode="layer"
     id="layer1"
     transform="translate(-311.37386,-62.646973)">
    <g
       transform="matrix(1.25,0,0,-1.25,54.291619,1085.4141)"
       inkscape:label="recyclingeurobanknotesframework2006es"
       id="g2993">
      <g
         id="g2997"
         clip-path="url(#clipPath2999)">
        <g
           transform="translate(6.8917923,-6.668298)"
           id="g3323">
          <g
             id="g3325"
             clip-path="url(#clipPath3327-4)">
            <path
               inkscape:connector-curvature="0"
               d="m 313.279,810.924 c 0.007,-0.191 0.028,-0.377 0.028,-0.57 0,-8.872 -7.212,-16.086 -16.084,-16.086 -8.873,0 -16.088,7.214 -16.088,16.086 0,0.193 0.022,0.379 0.029,0.57 l -5.953,0 0,-22.365 43.938,0 0,22.365 -5.87,0"
               style="fill:#004b95;fill-opacity:1;fill-rule:nonzero;stroke:none"
               id="path3331" />
            <path
               inkscape:connector-curvature="0"
               d="m 282.695,810.354 c 0,8.012 6.515,14.528 14.528,14.528 8.011,0 14.527,-6.516 14.527,-14.528 0,-8.012 -6.516,-14.527 -14.527,-14.527 -8.013,0 -14.528,6.515 -14.528,14.527"
               style="fill:#004b95;fill-opacity:1;fill-rule:nonzero;stroke:none"
               id="path3333" />
            <path
               inkscape:connector-curvature="0"
               d="m 297.255,823.539 -0.293,-0.909 -0.966,0 0.787,-0.588 -0.305,-0.933 0.777,0.575 0.778,-0.575 -0.302,0.933 0.78,0.588 -0.97,0 -0.286,0.909 z"
               style="fill:#ffec00;fill-opacity:1;fill-rule:nonzero;stroke:none"
               id="path3335" />
            <path
               inkscape:connector-curvature="0"
               d="m 291.387,821.936 -0.293,-0.91 -0.967,0 0.789,-0.588 -0.307,-0.933 0.778,0.575 0.778,-0.575 -0.304,0.933 0.783,0.588 -0.971,0 -0.286,0.91 z"
               style="fill:#ffec00;fill-opacity:1;fill-rule:nonzero;stroke:none"
               id="path3337" />
            <path
               inkscape:connector-curvature="0"
               d="m 287.023,817.743 -0.292,-0.909 -0.967,0 0.788,-0.588 -0.306,-0.933 0.777,0.574 0.778,-0.574 -0.303,0.933 0.782,0.588 -0.97,0 -0.287,0.909 z"
               style="fill:#ffec00;fill-opacity:1;fill-rule:nonzero;stroke:none"
               id="path3339" />
            <path
               inkscape:connector-curvature="0"
               d="m 285.296,811.602 -0.292,-0.91 -0.967,10e-4 0.788,-0.589 -0.306,-0.933 0.777,0.575 0.779,-0.575 -0.303,0.933 0.781,0.588 -0.97,0 -0.287,0.91 z"
               style="fill:#ffec00;fill-opacity:1;fill-rule:nonzero;stroke:none"
               id="path3341" />
            <path
               inkscape:connector-curvature="0"
               d="m 287.152,805.81 -0.293,-0.909 -0.966,0 0.788,-0.589 -0.307,-0.932 0.778,0.574 0.778,-0.574 -0.303,0.932 0.782,0.589 -0.97,0 -0.287,0.909 z"
               style="fill:#ffec00;fill-opacity:1;fill-rule:nonzero;stroke:none"
               id="path3343" />
            <path
               inkscape:connector-curvature="0"
               d="m 291.169,801.594 -0.293,-0.909 -0.967,0 0.788,-0.588 -0.307,-0.933 0.779,0.574 0.777,-0.574 -0.302,0.933 0.781,0.588 -0.97,0 -0.286,0.909 z"
               style="fill:#ffec00;fill-opacity:1;fill-rule:nonzero;stroke:none"
               id="path3345" />
            <path
               inkscape:connector-curvature="0"
               d="m 297.192,799.6 -0.294,-0.909 -0.966,0 0.788,-0.589 -0.306,-0.933 0.778,0.575 0.778,-0.575 -0.303,0.933 0.781,0.589 -0.97,0 -0.286,0.909 z"
               style="fill:#ffec00;fill-opacity:1;fill-rule:nonzero;stroke:none"
               id="path3347" />
            <path
               inkscape:connector-curvature="0"
               d="m 303.22,801.56 -0.292,-0.909 -0.966,0 0.787,-0.589 -0.306,-0.933 0.777,0.575 0.779,-0.575 -0.304,0.933 0.782,0.589 -0.97,0 -0.287,0.909 z"
               style="fill:#ffec00;fill-opacity:1;fill-rule:nonzero;stroke:none"
               id="path3349" />
            <path
               inkscape:connector-curvature="0"
               d="m 307.26,805.754 -0.294,-0.909 -0.965,0 0.788,-0.589 -0.307,-0.933 0.778,0.575 0.778,-0.575 -0.304,0.933 0.782,0.589 -0.97,0 -0.286,0.909 z"
               style="fill:#ffec00;fill-opacity:1;fill-rule:nonzero;stroke:none"
               id="path3351" />
            <path
               inkscape:connector-curvature="0"
               d="m 309.151,811.538 -0.293,-0.909 -0.967,0 0.789,-0.589 -0.306,-0.932 0.777,0.574 0.778,-0.574 -0.303,0.932 0.782,0.589 -0.971,0 -0.286,0.909 z"
               style="fill:#ffec00;fill-opacity:1;fill-rule:nonzero;stroke:none"
               id="path3353" />
            <path
               inkscape:connector-curvature="0"
               d="m 307.456,817.686 -0.293,-0.91 -0.967,0 0.788,-0.588 -0.306,-0.933 0.778,0.575 0.777,-0.575 -0.302,0.933 0.781,0.588 -0.97,0 -0.286,0.91 z"
               style="fill:#ffec00;fill-opacity:1;fill-rule:nonzero;stroke:none"
               id="path3355" />
            <path
               inkscape:connector-curvature="0"
               d="m 303.116,821.903 -0.293,-0.909 -0.967,0 0.787,-0.589 -0.307,-0.932 0.78,0.574 0.777,-0.574 -0.303,0.932 0.782,0.589 -0.971,0 -0.285,0.909 z"
               style="fill:#ffec00;fill-opacity:1;fill-rule:nonzero;stroke:none"
               id="path3357" />
            <path
               inkscape:connector-curvature="0"
               d="m 297.956,803.867 c -2.59,0 -4.781,1.923 -5.52,4.574 l 7.992,0 0.551,1.31 -8.78,0 c -0.019,0.215 -0.03,0.435 -0.03,0.655 0,0.222 0.011,0.44 0.03,0.656 l 9.331,0 0.552,1.31 -9.646,0 c 0.739,2.651 2.93,4.573 5.52,4.573 1.778,0 3.705,-0.906 5.067,-2.332 l 0.519,1.234 c -1.545,1.491 -3.614,2.418 -5.586,2.418 -3.24,0 -5.963,-2.504 -6.735,-5.893 l -1.813,0 -0.551,-1.31 2.169,0 c -0.017,-0.217 -0.024,-0.435 -0.024,-0.656 0,-0.22 0.007,-0.439 0.024,-0.655 l -1.624,0 -0.551,-1.31 2.37,0 c 0.772,-3.39 3.495,-5.893 6.735,-5.893 1.76,0 3.596,0.739 5.07,1.957 l 0,1.689 -0.003,0.005 c -1.362,-1.425 -3.289,-2.332 -5.067,-2.332"
               style="fill:#ffec00;fill-opacity:1;fill-rule:evenodd;stroke:none"
               id="path3359" />
            <path
               inkscape:connector-curvature="0"
               d="m 297.956,803.867 c -2.59,0 -4.781,1.923 -5.52,4.574 l 7.992,0 0.551,1.31 -8.78,0 c -0.019,0.215 -0.03,0.435 -0.03,0.655 0,0.222 0.011,0.44 0.03,0.656 l 9.331,0 0.552,1.31 -9.646,0 c 0.739,2.651 2.93,4.573 5.52,4.573 1.778,0 3.705,-0.906 5.067,-2.332 l 0.519,1.234 c -1.545,1.491 -3.614,2.418 -5.586,2.418 -3.24,0 -5.963,-2.504 -6.735,-5.893 l -1.813,0 -0.551,-1.31 2.169,0 c -0.017,-0.217 -0.024,-0.435 -0.024,-0.656 0,-0.22 0.007,-0.439 0.024,-0.655 l -1.624,0 -0.551,-1.31 2.37,0 c 0.772,-3.39 3.495,-5.893 6.735,-5.893 1.76,0 3.596,0.739 5.07,1.957 l 0,1.689 -0.003,0.005 c -1.362,-1.425 -3.289,-2.332 -5.067,-2.332 z"
               style="fill:none;stroke:#ffec00;stroke-width:0.1;stroke-linecap:butt;stroke-linejoin:miter;stroke-miterlimit:4;stroke-opacity:1;stroke-dasharray:none"
               id="path3361" />
            <path
               inkscape:connector-curvature="0"
               d="m 201.429,775.972 c 1.449,0 2.034,-0.855 2.034,-1.539 0,-0.513 -0.324,-0.972 -0.837,-1.224 0.873,-0.225 1.305,-0.855 1.305,-1.575 0,-0.702 -0.378,-1.8 -2.169,-1.8 l -2.988,0 0,6.138 2.655,0 z m -1.125,-2.439 0.801,0 c 0.558,0 0.783,0.342 0.783,0.666 0,0.315 -0.225,0.648 -0.783,0.648 l -0.801,0 0,-1.314 z m 0,-2.574 0.864,0 c 0.846,0 1.143,0.225 1.143,0.756 0,0.45 -0.396,0.693 -0.936,0.693 l -1.071,0 0,-1.449"
               style="fill:#004b95;fill-opacity:1;fill-rule:nonzero;stroke:none"
               id="path3363" />
            <path
               inkscape:connector-curvature="0"
               d="m 214.658,769.834 -1.646,0 -0.504,1.215 -2.745,0 -0.459,-1.215 -1.62,0 2.474,6.138 1.774,0 2.726,-6.138 z m -3.591,4.671 -0.899,-2.385 1.89,0 -0.991,2.385 z"
               style="fill:#004b95;fill-opacity:1;fill-rule:nonzero;stroke:none"
               id="path3365" />
            <path
               inkscape:connector-curvature="0"
               d="m 224.873,769.834 -1.286,0 -3.394,3.933 0,-3.933 -1.53,0 0,6.138 1.404,0 3.277,-3.753 0,3.753 1.529,0 0,-6.138 z"
               style="fill:#004b95;fill-opacity:1;fill-rule:nonzero;stroke:none"
               id="path3367" />
            <path
               inkscape:connector-curvature="0"
               d="m 235.26,770.365 c -0.856,-0.441 -1.503,-0.612 -2.412,-0.612 -2.385,0 -3.573,1.548 -3.573,3.132 0,1.638 1.34,3.168 3.69,3.168 0.854,0 1.619,-0.18 2.223,-0.54 l 0,-1.368 c -0.675,0.378 -1.36,0.63 -2.116,0.63 -1.304,0 -2.222,-0.774 -2.222,-1.863 0,-1.098 0.909,-1.881 2.186,-1.881 0.802,0 1.342,0.252 2.224,0.675 l 0,-1.341"
               style="fill:#004b95;fill-opacity:1;fill-rule:nonzero;stroke:none"
               id="path3369" />
            <path
               inkscape:connector-curvature="0"
               d="m 243.018,769.753 c -2.25,0 -3.52,1.584 -3.52,3.15 0,1.485 1.206,3.15 3.52,3.15 2.312,0 3.509,-1.674 3.509,-3.15 0,-1.575 -1.304,-3.15 -3.509,-3.15 m 0,5.022 c -1.17,0 -1.945,-0.747 -1.945,-1.872 0,-1.125 0.775,-1.872 1.945,-1.872 1.161,0 1.934,0.747 1.934,1.872 0,1.125 -0.773,1.872 -1.934,1.872"
               style="fill:#004b95;fill-opacity:1;fill-rule:nonzero;stroke:none"
               id="path3371" />
            <path
               inkscape:connector-curvature="0"
               d="m 262.431,770.365 c -0.856,-0.441 -1.503,-0.612 -2.412,-0.612 -2.385,0 -3.574,1.548 -3.574,3.132 0,1.638 1.341,3.168 3.691,3.168 0.854,0 1.62,-0.18 2.223,-0.54 l 0,-1.368 c -0.675,0.378 -1.36,0.63 -2.116,0.63 -1.304,0 -2.222,-0.774 -2.222,-1.863 0,-1.098 0.909,-1.881 2.186,-1.881 0.802,0 1.342,0.252 2.224,0.675 l 0,-1.341"
               style="fill:#004b95;fill-opacity:1;fill-rule:nonzero;stroke:none"
               id="path3373" />
            <path
               inkscape:connector-curvature="0"
               d="m 271.476,769.834 -4.528,0 0,6.138 4.464,0 0,-1.125 -2.933,0 0,-1.287 2.798,0 0,-1.125 -2.798,0 0,-1.476 2.997,0 0,-1.125 z"
               style="fill:#004b95;fill-opacity:1;fill-rule:nonzero;stroke:none"
               id="path3375" />
            <path
               inkscape:connector-curvature="0"
               d="m 282.15,769.834 -1.288,0 -3.392,3.933 0,-3.933 -1.53,0 0,6.138 1.404,0 3.275,-3.753 0,3.753 1.531,0 0,-6.138 z"
               style="fill:#004b95;fill-opacity:1;fill-rule:nonzero;stroke:none"
               id="path3377" />
            <path
               inkscape:connector-curvature="0"
               d="m 292.356,774.847 -2.224,0 0,-5.013 -1.529,0 0,5.013 -2.224,0 0,1.125 5.977,0 0,-1.125 z"
               style="fill:#004b95;fill-opacity:1;fill-rule:nonzero;stroke:none"
               id="path3379" />
            <path
               inkscape:connector-curvature="0"
               d="m 299.312,775.972 c 1.261,0 2.008,-0.846 2.008,-1.764 0,-0.675 -0.352,-1.179 -1.054,-1.503 0.631,-0.315 0.82,-1.071 1.684,-2.871 l -1.684,0 c -0.657,1.314 -0.899,2.493 -1.728,2.493 l -0.441,0 0,-2.493 -1.53,0 0,6.138 2.745,0 z m -1.215,-2.52 0.811,0 c 0.423,0 0.837,0.18 0.837,0.702 0,0.459 -0.297,0.693 -0.873,0.693 l -0.775,0 0,-1.395"
               style="fill:#004b95;fill-opacity:1;fill-rule:nonzero;stroke:none"
               id="path3381" />
            <path
               inkscape:connector-curvature="0"
               d="m 312.263,769.834 -1.646,0 -0.504,1.215 -2.746,0 -0.458,-1.215 -1.62,0 2.474,6.138 1.773,0 2.727,-6.138 z m -3.591,4.671 -0.9,-2.385 1.891,0 -0.991,2.385 z"
               style="fill:#004b95;fill-opacity:1;fill-rule:nonzero;stroke:none"
               id="path3383" />
            <path
               inkscape:connector-curvature="0"
               d="m 320.939,769.834 -4.68,0 0,6.138 1.531,0 0,-5.013 3.149,0 0,-1.125 z"
               style="fill:#004b95;fill-opacity:1;fill-rule:nonzero;stroke:none"
               id="path3385" />
            <path
               inkscape:connector-curvature="0"
               d="m 335.411,769.834 -4.527,0 0,6.138 4.464,0 0,-1.125 -2.933,0 0,-1.287 2.798,0 0,-1.125 -2.798,0 0,-1.476 2.996,0 0,-1.125 z"
               style="fill:#004b95;fill-opacity:1;fill-rule:nonzero;stroke:none"
               id="path3387" />
            <path
               inkscape:connector-curvature="0"
               d="m 345.95,775.972 0,-3.483 c 0,-2.034 -1.386,-2.736 -3.07,-2.736 -1.781,0 -3.068,0.828 -3.068,2.727 l 0,3.492 1.529,0 0,-3.528 c 0,-0.882 0.64,-1.413 1.522,-1.413 0.81,0 1.556,0.423 1.556,1.521 l 0,3.42 1.531,0"
               style="fill:#004b95;fill-opacity:1;fill-rule:nonzero;stroke:none"
               id="path3389" />
            <path
               inkscape:connector-curvature="0"
               d="m 353.303,775.972 c 1.26,0 2.007,-0.846 2.007,-1.764 0,-0.675 -0.35,-1.179 -1.053,-1.503 0.63,-0.315 0.819,-1.071 1.683,-2.871 l -1.683,0 c -0.657,1.314 -0.9,2.493 -1.728,2.493 l -0.441,0 0,-2.493 -1.531,0 0,6.138 2.746,0 z m -1.215,-2.52 0.81,0 c 0.422,0 0.836,0.18 0.836,0.702 0,0.459 -0.296,0.693 -0.872,0.693 l -0.774,0 0,-1.395"
               style="fill:#004b95;fill-opacity:1;fill-rule:nonzero;stroke:none"
               id="path3391" />
            <path
               inkscape:connector-curvature="0"
               d="m 363.059,769.753 c -2.25,0 -3.519,1.584 -3.519,3.15 0,1.485 1.206,3.15 3.519,3.15 2.313,0 3.51,-1.674 3.51,-3.15 0,-1.575 -1.305,-3.15 -3.51,-3.15 m 0,5.022 c -1.17,0 -1.944,-0.747 -1.944,-1.872 0,-1.125 0.774,-1.872 1.944,-1.872 1.161,0 1.935,0.747 1.935,1.872 0,1.125 -0.774,1.872 -1.935,1.872"
               style="fill:#004b95;fill-opacity:1;fill-rule:nonzero;stroke:none"
               id="path3393" />
            <path
               inkscape:connector-curvature="0"
               d="m 373.76,775.972 c 1.404,0 2.034,-0.981 2.034,-1.818 0,-0.864 -0.612,-1.854 -2.025,-1.854 l -1.215,0 0,-2.466 -1.531,0 0,6.138 2.737,0 z m -1.206,-2.547 0.711,0 c 0.701,0 0.954,0.252 0.954,0.711 0,0.522 -0.297,0.711 -1.125,0.711 l -0.54,0 0,-1.422"
               style="fill:#004b95;fill-opacity:1;fill-rule:nonzero;stroke:none"
               id="path3395" />
            <path
               inkscape:connector-curvature="0"
               d="m 384.695,769.834 -4.527,0 0,6.138 4.464,0 0,-1.125 -2.934,0 0,-1.287 2.799,0 0,-1.125 -2.799,0 0,-1.476 2.997,0 0,-1.125 z"
               style="fill:#004b95;fill-opacity:1;fill-rule:nonzero;stroke:none"
               id="path3397" />
            <path
               inkscape:connector-curvature="0"
               d="m 392.408,769.753 c -2.25,0 -3.519,1.584 -3.519,3.15 0,1.485 1.206,3.15 3.519,3.15 2.313,0 3.51,-1.674 3.51,-3.15 0,-1.575 -1.305,-3.15 -3.51,-3.15 m 0,5.022 c -1.17,0 -1.944,-0.747 -1.944,-1.872 0,-1.125 0.774,-1.872 1.944,-1.872 1.161,0 1.935,0.747 1.935,1.872 0,1.125 -0.774,1.872 -1.935,1.872"
               style="fill:#004b95;fill-opacity:1;fill-rule:nonzero;stroke:none"
               id="path3399" />
          </g>
        </g>
      </g>
    </g>
  </g>
</svg>
